<svg xmlns="http://www.w3.org/2000/svg" viewBox="0 0 144 134.61"><defs><style>.cls-1{fill:#fff;}</style></defs><g id="Warstwa_2" data-name="Warstwa 2"><g id="Warstwa_1-2" data-name="Warstwa 1"><polygon class="cls-1" points="93.52 37.29 93.52 113.95 87.14 113.95 87.14 55.92 60.56 55.92 60.56 113.95 54.19 113.95 54.19 74.51 27.61 74.51 27.61 116.8 120.1 116.8 120.1 37.29 93.52 37.29"/><polygon class="cls-1" points="137.07 7.94 137.07 127.67 6.93 127.67 6.93 72.78 118.02 10.77 120.74 15.04 128.56 0 111.63 0.74 114.29 4.92 0 68.71 0 134.61 144 134.61 144 7.94 137.07 7.94"/><rect class="cls-1" x="95.75" y="39.45" width="5.76" height="74.34"/><rect class="cls-1" x="62.49" y="57.91" width="5.76" height="55.88"/><rect class="cls-1" x="29.7" y="76.62" width="5.76" height="37.17"/></g></g></svg>